<?xml version="1.0" encoding="UTF-8"?>
<svg id="Layer_2" data-name="Layer 2" xmlns="http://www.w3.org/2000/svg" viewBox="0 0 334 260">
  <defs>
    <style>
      .cls-1 {
        fill: #fff;
      }

      .cls-2 {
        fill: #ff1f1a;
      }

      .cls-3 {
        fill: #d4d4d4;
      }
    </style>
  </defs>
  <path class="cls-3" d="m.61,256.24s-9-62,77-97c0,0-3,123-77,97Z"/>
  <path d="m-.87,256.46c-.09-.65-2.21-16.15,6.35-36.18,14.25-33.32,46.78-52.34,71.56-62.42l1.13,2.78c-24.26,9.87-56.09,28.44-69.94,60.83C0,240.72,2.07,255.87,2.1,256.02l-2.97.43Z"/>
  <g>
    <circle class="cls-1" cx="70" cy="44" r="21"/>
    <path d="m70,66.5c-12.41,0-22.5-10.09-22.5-22.5s10.09-22.5,22.5-22.5,22.5,10.09,22.5,22.5-10.09,22.5-22.5,22.5Zm0-42c-10.75,0-19.5,8.75-19.5,19.5s8.75,19.5,19.5,19.5,19.5-8.75,19.5-19.5-8.75-19.5-19.5-19.5Z"/>
  </g>
  <path class="cls-1" d="m315.04,188.74s32.19-87.61-9.49-145.44c-31.33-43.48-16,37.97-16,37.97,0,0-24.46-69.52-23.69,34.29,0,0-19.28-54.49-16.16,14.06,1.15,16.72,10.65,35.56,10.65,35.56"/>
  <path class="cls-3" d="m167.11,134.74s6.5,73.25,41,108.88,108.19,16.04,116.34-91.17c3.16-53.21-6.68-87.21-6.68-87.21,0,0-18.34-24.14-29.25,23.93,0,0-18.58-30.29-22.25,15.39l-24.24,38.18-74.92-8Z"/>
  <path d="m320.05,188.68l-2.87-.87c.24-.78,23.38-79.16-12.54-143.35-7.45-13.32-10.6-13.51-11.4-13.26-3.71,1.21-5.4,20.36-1.8,50.31l1.63,13.54-4.53-12.87c-3.85-10.93-10.14-22.35-13.55-21.77-1.79.31-7.6,5.24-7.23,55.55l.07,8.93-2.98-8.42c-4.44-12.54-9.29-19.83-10.77-19.53-.16.03-3.92,1.14-2.47,33.02,1.12,16.2,10.39,34.77,10.49,34.96l-2.68,1.35c-.39-.78-9.64-19.3-10.8-36.13-1.4-30.73,1.69-35.51,4.89-36.14,3.96-.78,8.24,6.99,11.25,13.98.1-16.01.88-28.29,2.35-36.56,1.58-8.92,3.92-13.36,7.37-13.96,3.6-.63,7.44,3.21,11.76,11.73.43.86.85,1.72,1.24,2.56-.36-4.33-.71-9.6-.88-14.91-.72-23.64,2.92-27.58,5.72-28.5,3.95-1.28,8.56,3.23,14.94,14.64,19.11,34.16,21.57,71.95,20.27,97.64-1.41,27.8-7.42,47.85-7.48,48.05Z"/>
  <g>
    <path class="cls-3" d="m176.66,120.24s56.95-37,138.95-44c55.8-4.76-35.61,40.72-35.61,40.72,0,0,79.61-3.72-17.39,33.28,0,0,54,5-11,27-16,5-37,3-37,3"/>
    <path d="m224.82,182.15c-5.86,0-9.97-.38-10.35-.41l.28-2.99c.21.02,20.89,1.91,36.41-2.94,28.62-9.69,31.2-15.12,30.98-17.01-.26-2.2-6.53-5.85-19.67-7.07l-6.42-.6,6.03-2.3c45.14-17.22,47.49-24.1,47.14-25.8-.76-3.64-15.72-5.21-29.15-4.59l-7.11.33,6.38-3.17c.14-.07,14.19-7.08,27.72-15.18,25.19-15.08,25.3-20.01,25.07-20.84-.15-.53-1.64-3.12-16.38-1.86-80.65,6.88-137.7,43.4-138.26,43.76l-1.63-2.52c.57-.37,58.21-37.29,139.64-44.24,12.42-1.06,18.44.19,19.52,4.04.87,3.09-.93,8.97-26.43,24.23-8.29,4.96-16.76,9.51-22.17,12.33,2.49.02,5.46.1,8.48.32,10.98.81,16.47,2.96,17.26,6.76,1.66,7.98-21.3,18.41-43.54,27.1,6.58,1.14,15.9,3.67,16.51,8.92.44,3.73-2.51,9.88-33.03,20.21-9.12,2.85-19.66,3.49-27.27,3.49Z"/>
  </g>
  <path d="m62.11,162.74s-19.34,75.05,75,34c94.13-40.96,57.6-140.42,46.67-165.29-2.16-4.91-5.2-9.38-9.05-13.11-12.67-12.27-44.57-32.64-99.31-2.67-19.13,10.47-30.88,30.86-29.84,52.65.62,12.99,3.54,29.79,10.54,51.35,9,35.08,6,43.08,6,43.08Z"/>
  <path d="m62.11,95.74s-28,13-46,47"/>
  <path class="cls-2" d="m75.11,91.74s-43,21-59,51c0,0,47-31,82-30s2-33-23-21Z"/>
  <path d="m113.11,84.74S46.11,50.74,10.11,112.74c0,0,50-22,86-12,0,0-52,11-80,42,0,0,56-28,92-20,23,5,22-32,5-38Z"/>
  <circle class="cls-1" cx="126.5" cy="63.5" r="21"/>
  <g>
    <circle cx="120" cy="59" r="14"/>
    <path class="cls-1" d="m120,73.5c-8,0-14.5-6.5-14.5-14.5s6.5-14.5,14.5-14.5,14.5,6.5,14.5,14.5-6.5,14.5-14.5,14.5Zm0-28c-7.44,0-13.5,6.06-13.5,13.5s6.06,13.5,13.5,13.5,13.5-6.06,13.5-13.5-6.06-13.5-13.5-13.5Z"/>
  </g>
  <circle class="cls-1" cx="123.5" cy="50.5" r="3"/>
</svg>