<svg width="59" height="16" viewBox="0 0 59 16" fill="none" xmlns="http://www.w3.org/2000/svg">
<g clip-path="url(#clip0_408_833)">
<path d="M5.3523 10.8276C5.31533 11.7471 5.25989 12.5747 5.16748 13.3839C5.00115 14.7632 4.26188 15.8483 2.7279 15.8483C1.19392 15.8483 0.417685 14.7632 0.269832 13.3839C0.0859387 11.8207 -0.00646973 9.81608 -0.00646973 7.977C-0.00646973 6.13792 0.0304936 4.48275 0.215311 2.93792C0.474054 0.583897 3.50505 -0.0229992 6.14701 -0.04139C10.1945 -0.0597808 11.7654 0.694242 11.7654 2.75401C11.7654 4.29884 11.1186 5.12643 9.95424 4.92413C9.45523 4.85056 8.80837 4.79539 8.34633 4.79539C7.01565 4.79539 6.11005 4.9793 5.31533 5.29194C4.92722 5.45746 5.05659 5.95401 5.48167 5.80689C7.10806 5.21838 9.51068 5.16321 10.5087 5.78849C11.3588 6.34022 11.7654 6.94712 11.7654 8.32643C11.7654 9.70574 11.3588 10.331 10.5087 10.846C9.51068 11.4713 6.99717 11.4161 5.3523 10.8276Z" fill="black"/>
<path d="M18.271 11.7103C19.5647 11.8391 20.3964 12.1701 20.3964 13.623C20.3964 15.5908 17.6796 15.885 15.8129 15.8667C14.242 15.8483 13.3179 14.7816 13.1885 13.4023C12.8374 9.90803 12.8374 6.06436 13.1885 2.58849C13.3179 1.22757 14.0941 0.142517 15.6651 0.142517C17.236 0.142517 17.9568 1.22757 18.0862 2.58849C18.3634 5.27355 18.4558 8.91493 18.271 11.7103Z" fill="black"/>
<path d="M24.5732 15.8667C23.834 15.8667 23.2241 15.7747 22.7251 15.5724C21.6162 15.1494 21.0617 14.5058 20.7845 13.4207C20.4518 12.0598 20.5627 10.0184 20.5997 6.8184C20.6181 5.27357 21.3759 4.24368 23.5383 4.24368C25.7006 4.24368 26.4029 5.27357 26.4029 6.8184V10.6621C26.4399 11.2322 27.1052 11.1954 27.1237 10.5885V6.68966C27.1237 5.32874 27.9739 4.24368 29.4709 4.24368C30.9679 4.24368 31.8181 5.32874 31.8181 6.68966V12.6299C31.9105 13.8621 32.3171 15.5356 30.9679 15.8483C30.358 15.977 29.9329 16.0322 29.5078 16.0322C27.4933 16.0322 27.4564 14.6713 27.29 14.046C27.2161 13.7885 26.8834 13.8989 26.9204 14.1195C26.9943 14.5241 27.1607 15.223 27.29 15.4437C26.5323 15.7012 25.5158 15.8667 24.5732 15.8667Z" fill="black"/>
<path d="M34.9415 9.74253C34.4055 9.72414 33.925 9.66896 33.6108 9.48506C33.0009 9.13563 32.7237 8.45517 32.7237 7.48046C32.7237 5.93563 33.5739 5.53103 34.96 5.38391C34.96 5.14483 34.9785 4.92414 34.9969 4.68506C35.0154 4.29885 35.0339 3.91264 35.0709 3.52643C35.2187 1.54023 36.6973 -0.0413818 38.6563 -0.0413818C41.5395 -0.0413818 42.3711 0.970113 42.3711 2.42299C42.3711 3.52643 41.8721 4.44597 41.0405 4.37241C40.0979 4.28046 38.8781 4.31724 37.991 4.51954C37.7138 4.57471 37.7692 4.96092 38.0834 4.90574C39.2292 4.68506 40.7632 4.62988 41.484 5.03448C42.0939 5.38391 42.3711 6.08276 42.3711 7.05747C42.3711 8.47356 41.6319 9.06207 40.3197 9.15402C40.2827 10.6069 40.1903 12.023 40.0609 13.4023C39.9131 14.7816 39.1553 15.8667 37.6213 15.8667C36.0874 15.8667 35.3111 14.7816 35.1633 13.4023C35.0339 12.1885 34.9785 10.9563 34.9415 9.74253Z" fill="black"/>
<path d="M45.0694 9.74253C44.5335 9.72414 44.0529 9.66896 43.7387 9.48506C43.1288 9.13563 42.8516 8.45517 42.8516 7.48046C42.8516 5.93563 43.7018 5.53103 45.0879 5.38391C45.0879 5.14483 45.1064 4.92414 45.1249 4.68506C45.1434 4.29885 45.1618 3.91264 45.1988 3.52643C45.3467 1.54023 46.8252 -0.0413818 48.7842 -0.0413818C51.6674 -0.0413818 52.4991 0.970113 52.4991 2.42299C52.4991 3.52643 52.0001 4.44597 51.1684 4.37241C50.2258 4.28046 49.006 4.31724 48.1189 4.51954C47.8417 4.57471 47.8971 4.96092 48.2113 4.90574C49.3572 4.68506 50.8912 4.62988 51.6119 5.03448C52.2218 5.38391 52.4991 6.08276 52.4991 7.05747C52.4991 8.47356 51.7598 9.06207 50.4476 9.15402C50.4106 10.6069 50.3182 12.023 50.1889 13.4023C50.041 14.7816 49.2832 15.8667 47.7493 15.8667C46.2153 15.8667 45.4391 14.7816 45.2912 13.4023C45.1618 12.1885 45.1064 10.9563 45.0694 9.74253Z" fill="black"/>
<path d="M53.7189 14.3218C53.3677 12.1517 53.3677 9.74253 53.7189 7.57241C53.8482 6.72643 54.6245 6.02758 56.1954 6.02758C57.7664 6.02758 58.4687 6.72643 58.6165 7.57241C58.9862 9.74253 58.9862 12.1517 58.6165 14.3218C58.4687 15.1862 57.7109 15.8667 56.1954 15.8667C54.6799 15.8667 53.8482 15.1862 53.7189 14.3218ZM56.1954 5.07126C54.9387 5.07126 53.7743 4.15172 53.7743 2.51494C53.7743 0.988503 54.9571 -0.0413818 56.1954 -0.0413818C57.5446 -0.0413818 58.6165 1.24597 58.6165 2.57011C58.6165 3.89425 57.6 5.07126 56.1954 5.07126Z" fill="black"/>
</g>
<defs>
<clipPath id="clip0_408_833">
<rect width="58.8642" height="16" fill="white"/>
</clipPath>
</defs>
</svg>
